<svg width="677" height="205" viewBox="0 0 677 205" fill="none" xmlns="http://www.w3.org/2000/svg">
<g filter="url(#filter0_d)">
<path d="M69.9375 105.5C69.0625 105.812 68.3438 105.969 67.7812 105.969L65.7188 125.281L58.0312 126.031L53.625 76.625C56.3125 75.75 59.9062 74.9688 64.4062 74.2812C68.9062 73.5312 73.2188 73.1562 77.3438 73.1562C83.9062 73.1562 89.1562 74.375 93.0938 76.8125C93.9688 79.5625 94.4062 82.0938 94.4062 84.4062C94.4062 90.8438 90.7188 96.1875 83.3438 100.438L96.1875 124.906L90.8438 127.906L69.9375 105.5ZM79.5938 86.5625C79.5938 82.9375 78 80.125 74.8125 78.125C73.5625 78.125 72.1875 78.4062 70.6875 78.9688L68.3438 101.094C71.9062 99.4688 74.6562 97.3125 76.5938 94.625C78.5938 91.9375 79.5938 89.25 79.5938 86.5625ZM118.125 83.5625C130.5 88.5 136.688 94.6875 136.688 102.125C136.688 106 135.594 108.781 133.406 110.469C131.219 112.156 127.719 113 122.906 113C118.156 113 114.562 112.719 112.125 112.156C111.188 114.531 110.688 117.031 110.625 119.656C112.938 119.969 116.156 120.125 120.281 120.125C124.406 120.125 128.844 119.312 133.594 117.688L135.844 125.094C132.094 126.281 127.906 126.875 123.281 126.875C114.969 126.875 108.875 125.344 105 122.281C104.188 118.656 103.781 115.25 103.781 112.062C103.781 105.625 105.188 99.8125 108 94.625C110.875 89.375 114.25 85.6875 118.125 83.5625ZM113.625 108.594C114.25 108.656 115.906 108.688 118.594 108.688C121.344 108.688 124.469 108.312 127.969 107.562C128.094 106.625 128.188 105.656 128.25 104.656C128.25 101.594 127.375 98.6562 125.625 95.8438C120.5 99.2188 116.5 103.469 113.625 108.594ZM151.125 126.781C150.25 126.781 149.625 126.75 149.25 126.688C147.5 125.5 146.094 123.75 145.031 121.438C144.031 119.125 143.531 116.531 143.531 113.656C143.531 110.719 144.75 108.531 147.188 107.094C149.688 105.594 154.25 104.844 160.875 104.844C163.312 104.844 165.906 105 168.656 105.312L168.469 103.625C168.281 101.562 167.312 99.9375 165.562 98.75C163.812 97.5625 161.562 96.9688 158.812 96.9688C156.125 96.9688 153.438 97.8125 150.75 99.5L147.375 88.4375C151.75 86.625 156.75 85.7188 162.375 85.7188C168 85.7188 172.438 87 175.688 89.5625C179 92.0625 180.656 96 180.656 101.375C180.656 102.625 180.594 103.594 180.469 104.281L178.406 125.469L170.719 126.125L169.594 115.062H169.031C167.281 118.75 164.844 121.625 161.719 123.688C158.656 125.75 155.125 126.781 151.125 126.781ZM168.938 108.594L164.906 108.5C161.531 108.5 158.75 108.688 156.562 109.062C155.875 110.5 155.531 111.781 155.531 112.906C155.531 114.031 155.656 115.125 155.906 116.188C156.219 117.188 156.562 117.844 156.938 118.156C163.062 117.219 167.062 114.031 168.938 108.594ZM202.688 120.125C207.562 120.125 212.188 119.312 216.562 117.688L218.906 125.094C215.281 126.281 211.5 126.875 207.562 126.875C203.625 126.875 200.125 126.438 197.062 125.562C194.062 124.75 191.812 123.656 190.312 122.281C189.562 118.594 189.156 115.188 189.094 112.062C189.094 105.688 190.531 99.875 193.406 94.625C196.344 89.375 199.688 85.6875 203.438 83.5625L216.75 92.2812C210.312 95.7812 205.219 99.9375 201.469 104.75C197.781 109.5 195.938 114.469 195.938 119.656C198.125 119.969 200.375 120.125 202.688 120.125ZM232.125 126.125L228.844 95.1875L221.719 96.125L221.25 88.25L228 87.875L226.875 77.1875L246 74.5625L244.406 87.0312L252.094 86.6562L251.812 91.8125L243.656 92.9375L239.719 125.469L232.125 126.125ZM278.812 125L293.156 73.9062L311.719 75.0312L321.656 125L314.812 126.125L309.469 113.375L289.031 115.062L286.406 126.125L278.812 125ZM296.531 83.5625L290.438 109.156L307.781 109.344L297.094 83.5625H296.531ZM352.594 116C354.469 113.562 355.75 110.906 356.438 108.031C357.188 105.156 357.562 102.656 357.562 100.531C357.562 98.4062 357.281 94.25 356.719 88.0625L373.125 85.625L368.156 125.469L360.562 126.125L359.062 111.594H358.5C354.688 121.719 348.656 126.781 340.406 126.781C339.156 126.781 338.125 126.562 337.312 126.125C334.688 123 332.906 117.625 331.969 110C331.031 102.375 330.562 94.7812 330.562 87.2188L345.844 86.0938C344.969 95.0312 344.5 101.719 344.438 106.156C344.438 110.594 344.812 115.406 345.562 120.594C348.375 119.969 350.719 118.438 352.594 116ZM390 126.125L386.719 95.1875L379.594 96.125L379.125 88.25L385.875 87.875L384.75 77.1875L403.875 74.5625L402.281 87.0312L409.969 86.6562L409.688 91.8125L401.531 92.9375L397.594 125.469L390 126.125ZM447.375 84.7812C448.25 84.7812 449.188 84.9688 450.188 85.3438C452.812 88.4688 454.594 93.9375 455.531 101.75C456.469 109.562 456.938 117.312 456.938 125L443.156 126.125C443.156 114.312 442.75 103.594 441.938 93.9688C435.125 96.4688 430.562 106.969 428.25 125.469L420.656 126.125L416.812 72.5938L433.219 70.0625L430.312 101.656H431.062C433.188 96.5312 435.656 92.4375 438.469 89.375C441.281 86.3125 444.25 84.7812 447.375 84.7812ZM494.531 126.875C491.406 126.875 488.156 126 484.781 124.25L486.094 120.031C488.344 120.719 490.125 121.094 491.438 121.156C495.125 121.156 496.969 118.875 496.969 114.312C496.969 113.625 495.875 100.531 493.688 75.0312L511.875 73.9062L507.656 114.219C506.781 122.656 502.406 126.875 494.531 126.875ZM537.375 73.9062L542.719 112.625H543.281L554.906 76.25L561.094 78.0312L569.062 112.906H569.625L578.531 73.9062L585.375 75.7812L571.781 125L564.938 126.125L553.125 100.25L544.406 125L535.969 126.125L519.844 76.0625L537.375 73.9062ZM591.562 74.9375L630.75 73.9062L630.562 79.0625L619.781 80.1875L615 125.281L606.656 126.031L602.719 81.875L592.031 82.9062L591.562 74.9375Z" fill="#108AFC"/>
</g>
<defs>
<filter id="filter0_d" x="-4" y="0" width="685" height="213" filterUnits="userSpaceOnUse" color-interpolation-filters="sRGB">
<feFlood flood-opacity="0" result="BackgroundImageFix"/>
<feColorMatrix in="SourceAlpha" type="matrix" values="0 0 0 0 0 0 0 0 0 0 0 0 0 0 0 0 0 0 127 0"/>
<feOffset dy="4"/>
<feGaussianBlur stdDeviation="2"/>
<feColorMatrix type="matrix" values="0 0 0 0 0 0 0 0 0 0 0 0 0 0 0 0 0 0 0.25 0"/>
<feBlend mode="normal" in2="BackgroundImageFix" result="effect1_dropShadow"/>
<feBlend mode="normal" in="SourceGraphic" in2="effect1_dropShadow" result="shape"/>
</filter>
</defs>
</svg>
