<svg width="512" height="512" viewBox="0 0 512 512" fill="none" xmlns="http://www.w3.org/2000/svg">
<g clip-path="url(#clip0)">
<g filter="url(#filter0_d)">
<path d="M71.2341 153.958C99.6432 153.958 128.062 153.958 156.471 153.958C201.726 153.958 246.991 153.958 292.247 153.958C302.595 153.958 312.954 153.958 323.302 153.958C328.763 153.958 330.688 147.448 327.489 143.558C303.711 114.57 277.761 87.3495 249.095 63.4402C223.806 42.3443 196.335 23.1884 165.842 11.0001C145.027 2.68159 120.577 -2.87423 98.6755 4.36764C78.4919 11.0407 65.0921 28.1043 59.3451 48.6619C50.221 81.2757 56.8469 117.597 65.5167 149.489C67.5706 157.036 79.0054 153.826 76.9416 146.249C69.5159 118.948 63.6307 88.8324 68.805 60.4947C72.1821 41.9888 81.2963 24.1838 99.1989 17.0638C118.188 9.50703 139.783 14.2503 158.269 21.0554C186.688 31.5272 212.737 49.2612 236.287 68.4069C266.721 93.1593 294.123 121.7 319.105 152.181C320.498 148.718 321.9 145.244 323.292 141.78C294.883 141.78 266.464 141.78 238.055 141.78C192.8 141.78 147.535 141.78 102.28 141.78C91.9312 141.78 81.5728 141.78 71.2242 141.78C63.6109 141.77 63.5912 153.958 71.2341 153.958Z" fill="white"/>
<path d="M416.567 494.781C391.99 506.716 361.527 496.386 338.568 485.305C302.388 467.845 270.355 441.762 241.501 413.618C224.191 396.727 207.938 378.718 192.592 359.938C191.2 363.402 189.798 366.875 188.406 370.339C217.081 370.339 245.757 370.339 274.433 370.339C319.767 370.339 365.101 370.339 410.445 370.339C420.932 370.339 431.419 370.339 441.905 370.339C440 368.846 438.094 367.353 436.188 365.87C443.406 392.319 448.867 420.951 444.957 448.486C442.241 467.652 434.085 485.843 416.567 494.781C409.734 498.265 415.728 508.778 422.551 505.304C442.241 495.259 452.777 474.6 456.204 452.986C460.973 422.86 455.552 391.689 447.623 362.64C446.922 360.06 444.522 358.171 441.905 358.171C413.23 358.171 384.554 358.171 355.878 358.171C310.544 358.171 265.21 358.171 219.866 358.171C209.379 358.171 198.892 358.171 188.406 358.171C182.935 358.171 181.029 364.671 184.219 368.572C212.707 403.42 244.365 435.76 280.002 462.858C308.836 484.787 342.459 505.761 378.61 510.951C393.609 513.104 408.717 512.028 422.541 505.314C429.444 501.962 423.43 491.45 416.567 494.781Z" fill="white"/>
<path d="M441.905 141.835C413.23 141.835 384.554 141.835 355.878 141.835C310.544 141.835 265.21 141.835 219.866 141.835C209.379 141.835 198.892 141.835 188.406 141.835C189.798 145.298 191.2 148.772 192.593 152.235C214.08 125.949 237.354 101.126 262.801 78.8516C287.013 57.6643 313.487 38.2951 342.636 24.9692C362.079 16.0819 385.433 8.70801 406.782 13.949C425.859 18.6313 437.847 33.8463 442.784 52.8194C450.684 83.1987 444.265 116.727 436.188 146.304C434.124 153.87 445.549 157.1 447.613 149.544C455.641 120.129 461.161 88.4194 455.986 57.9487C452.333 36.3957 441.283 15.5741 421.208 6.23989C399.899 -3.67325 375.371 -0.0980167 353.903 7.40793C323.766 17.9508 296.453 36.0606 271.441 55.9986C239.25 81.665 210.396 111.577 184.209 143.612C181.02 147.512 182.945 154.013 188.396 154.013C217.072 154.013 245.747 154.013 274.423 154.013C319.757 154.013 365.091 154.013 410.435 154.013C420.922 154.013 431.409 154.013 441.895 154.013C449.529 154.023 449.538 141.835 441.905 141.835Z" fill="white"/>
<path d="M320.172 359.948C298.685 386.235 275.411 411.058 249.964 433.332C225.751 454.519 199.278 473.889 170.128 487.214C150.685 496.102 127.331 503.476 105.983 498.235C86.905 493.552 74.9173 478.337 69.98 459.364C62.0803 428.985 68.4988 395.457 76.5762 365.88C74.6704 367.373 72.7646 368.866 70.8588 370.349C99.5346 370.349 128.21 370.349 156.886 370.349C202.22 370.349 247.554 370.349 292.898 370.349C303.385 370.349 313.872 370.349 324.359 370.349C331.982 370.349 331.992 358.161 324.359 358.161C295.683 358.161 267.007 358.161 238.331 358.161C192.997 358.161 147.663 358.161 102.319 358.161C91.8324 358.161 81.3456 358.161 70.8588 358.161C68.2421 358.161 65.8524 360.06 65.1414 362.63C57.1134 392.044 51.5935 423.754 56.7678 454.225C60.4214 475.778 71.471 496.599 91.546 505.934C112.855 515.847 137.384 512.272 158.851 504.766C188.988 494.223 216.301 476.113 241.314 456.175C273.505 430.508 302.358 400.596 328.546 368.562C333.424 362.599 325.089 353.936 320.172 359.948Z" fill="white"/>
</g>
<g filter="url(#filter1_d)">
<path fill-rule="evenodd" clip-rule="evenodd" d="M50.6203 179.532V290.291C50.6203 314.658 30.6836 334.595 6.31647 334.595V312.443C18.6582 312.443 28.4684 302.633 28.4684 290.291V179.532H50.6203ZM455.051 201.684H505.051V179.532H383.215V201.684H432.899V334.595H455.051V201.684ZM316.443 179.532V290.291C316.443 302.633 306.633 312.443 294.291 312.443C281.949 312.443 272.139 302.633 272.139 290.291V223.835C272.139 199.468 252.203 179.532 227.835 179.532C203.468 179.532 183.532 199.468 183.532 223.835V290.291C183.532 302.633 173.722 312.443 161.38 312.443C149.038 312.443 139.228 302.633 139.228 290.291V179.532H117.076V290.291C117.076 314.658 137.013 334.595 161.38 334.595C185.747 334.595 205.684 314.658 205.684 290.291V223.835C205.684 211.494 215.494 201.684 227.835 201.684C240.177 201.684 249.987 211.494 249.987 223.835V290.291C249.987 314.658 269.924 334.595 294.291 334.595C318.658 334.595 338.595 314.658 338.595 290.291V179.532H316.443Z" fill="white"/>
</g>
</g>
<defs>
<filter id="filter0_d" x="24.7543" y="-25.8265" width="463.246" height="571.827" filterUnits="userSpaceOnUse" color-interpolation-filters="sRGB">
<feFlood flood-opacity="0" result="BackgroundImageFix"/>
<feColorMatrix in="SourceAlpha" type="matrix" values="0 0 0 0 0 0 0 0 0 0 0 0 0 0 0 0 0 0 127 0"/>
<feOffset dy="4"/>
<feGaussianBlur stdDeviation="15"/>
<feColorMatrix type="matrix" values="0 0 0 0 0 0 0 0 0 0 0 0 0 0 0 0 0 0 0.25 0"/>
<feBlend mode="normal" in2="BackgroundImageFix" result="effect1_dropShadow"/>
<feBlend mode="normal" in="SourceGraphic" in2="effect1_dropShadow" result="shape"/>
</filter>
<filter id="filter1_d" x="-24" y="151" width="560" height="218.228" filterUnits="userSpaceOnUse" color-interpolation-filters="sRGB">
<feFlood flood-opacity="0" result="BackgroundImageFix"/>
<feColorMatrix in="SourceAlpha" type="matrix" values="0 0 0 0 0 0 0 0 0 0 0 0 0 0 0 0 0 0 127 0"/>
<feOffset dy="4"/>
<feGaussianBlur stdDeviation="15"/>
<feColorMatrix type="matrix" values="0 0 0 0 0 0 0 0 0 0 0 0 0 0 0 0 0 0 0.25 0"/>
<feBlend mode="normal" in2="BackgroundImageFix" result="effect1_dropShadow"/>
<feBlend mode="normal" in="SourceGraphic" in2="effect1_dropShadow" result="shape"/>
</filter>
<clipPath id="clip0">
<rect width="512" height="512" fill="white"/>
</clipPath>
</defs>
</svg>
